<?xml version="1.0" encoding="UTF-8"?>
<svg xmlns="http://www.w3.org/2000/svg" xmlns:xlink="http://www.w3.org/1999/xlink" width="40pt" height="40pt" viewBox="0 0 40 40" version="1.1">
<g id="surface1">
<path style=" stroke:none;fill-rule:nonzero;fill:rgb(0%,0%,0%);fill-opacity:1;" d="M 17.253906 38.222656 L 17.257812 38.21875 L 17.253906 38.21875 Z M 17.253906 38.222656 "/>
<path style=" stroke:none;fill-rule:nonzero;fill:rgb(0%,0%,0%);fill-opacity:1;" d="M 31.625 21.734375 C 29.894531 21.734375 28.277344 22.253906 26.921875 23.144531 C 25.292969 22.121094 23.476562 21.289062 21.507812 20.789062 C 24.632812 18.691406 26.78125 14.550781 26.78125 10.820312 C 26.78125 5.554688 22.511719 1.289062 17.253906 1.289062 C 11.992188 1.289062 7.726562 5.554688 7.726562 10.820312 C 7.726562 14.550781 9.875 18.691406 13 20.789062 C 5.53125 22.683594 0 29.164062 0 33.96875 C 0 36.804688 8.625 38.222656 17.253906 38.222656 L 12.417969 33.386719 L 16.488281 23.550781 L 16.449219 23.550781 L 14.863281 21.738281 C 15.628906 22.015625 16.425781 22.183594 17.253906 22.183594 C 18.078125 22.183594 18.875 22.015625 19.636719 21.742188 L 18.054688 23.550781 L 18.019531 23.550781 L 22.085938 33.386719 L 17.253906 38.21875 C 20.664062 38.21875 24.074219 37.996094 26.953125 37.550781 C 28.300781 38.425781 29.902344 38.941406 31.625 38.941406 C 36.375 38.941406 40.230469 35.082031 40.230469 30.339844 C 40.234375 25.59375 36.375 21.734375 31.625 21.734375 Z M 31.625 37.503906 C 27.679688 37.503906 24.464844 34.289062 24.464844 30.339844 C 24.464844 26.386719 27.675781 23.171875 31.625 23.171875 C 35.578125 23.171875 38.792969 26.386719 38.792969 30.339844 C 38.792969 34.289062 35.578125 37.503906 31.625 37.503906 Z M 31.625 37.503906 "/>
<path style=" stroke:none;fill-rule:nonzero;fill:rgb(0%,0%,0%);fill-opacity:1;" d="M 31.910156 26.714844 C 32.140625 26.714844 32.347656 26.613281 32.535156 26.398438 C 32.71875 26.1875 32.808594 25.957031 32.808594 25.707031 C 32.808594 25.460938 32.738281 25.253906 32.601562 25.089844 C 32.460938 24.925781 32.277344 24.847656 32.050781 24.847656 C 31.824219 24.847656 31.625 24.960938 31.433594 25.1875 C 31.246094 25.417969 31.15625 25.652344 31.15625 25.894531 C 31.15625 26.136719 31.222656 26.332031 31.359375 26.484375 C 31.496094 26.640625 31.675781 26.714844 31.910156 26.714844 Z M 31.910156 26.714844 "/>
<path style=" stroke:none;fill-rule:nonzero;fill:rgb(0%,0%,0%);fill-opacity:1;" d="M 32.992188 34.347656 C 32.730469 34.535156 32.503906 34.628906 32.3125 34.628906 C 32.128906 34.628906 32.035156 34.46875 32.035156 34.148438 C 32.035156 33.988281 32.046875 33.789062 32.078125 33.546875 L 32.304688 30.941406 C 32.402344 29.921875 32.449219 29.378906 32.449219 29.3125 C 32.449219 28.542969 32.195312 28.164062 31.691406 28.164062 C 31.238281 28.164062 30.78125 28.382812 30.324219 28.824219 C 29.863281 29.269531 29.511719 29.800781 29.273438 30.433594 L 29.660156 30.703125 C 30.230469 29.84375 30.617188 29.417969 30.8125 29.417969 C 31.003906 29.417969 31.105469 29.628906 31.105469 30.058594 C 31.105469 30.21875 31.09375 30.398438 31.074219 30.589844 L 30.78125 33.199219 C 30.710938 33.925781 30.675781 34.441406 30.675781 34.75 C 30.675781 35.054688 30.746094 35.3125 30.886719 35.519531 C 31.027344 35.726562 31.265625 35.828125 31.613281 35.828125 C 32.699219 35.828125 33.496094 35.171875 33.988281 33.851562 L 33.644531 33.609375 C 33.46875 33.914062 33.253906 34.160156 32.992188 34.347656 Z M 32.992188 34.347656 "/>
</g>
</svg>
