<?xml version="1.0" encoding="iso-8859-1"?>
<!-- Generator: Adobe Illustrator 16.0.0, SVG Export Plug-In . SVG Version: 6.00 Build 0)  -->
<!DOCTYPE svg PUBLIC "-//W3C//DTD SVG 1.1//EN" "http://www.w3.org/Graphics/SVG/1.1/DTD/svg11.dtd">
<svg version="1.1" id="Capa_1" xmlns="http://www.w3.org/2000/svg" xmlns:xlink="http://www.w3.org/1999/xlink" x="0px" y="0px"
	 width="174.229px" height="174.229px" viewBox="0 0 174.229 174.229" style="enable-background:new 0 0 174.229 174.229;"
	 xml:space="preserve">
<g>
	<g>
		<polygon points="74.726,165.527 74.732,165.516 74.72,165.516 		"/>
		<path d="M136.969,94.126c-7.514,0-14.504,2.26-20.374,6.107c-7.063-4.433-14.931-8.041-23.443-10.199
			c13.523-9.097,22.834-27.023,22.834-43.178c0-22.789-18.486-41.272-41.266-41.272c-22.786,0-41.266,18.478-41.266,41.272
			c0,16.155,9.311,34.081,22.834,43.178C23.952,98.23,0,126.302,0,147.096c0,12.294,37.357,18.432,74.714,18.426l-20.929-20.923
			l17.622-42.6h-0.179L64.38,94.15c3.304,1.188,6.759,1.906,10.339,1.906c3.571,0,7.021-0.719,10.325-1.9l-6.848,7.843h-0.167
			l17.619,42.594l-20.922,20.923c14.772,0,29.532-0.969,42.003-2.893c5.833,3.787,12.775,6.022,20.24,6.022
			c20.545,0,37.26-16.715,37.26-37.26C174.235,110.841,157.514,94.126,136.969,94.126z M136.969,162.41
			c-17.099,0-31.024-13.92-31.024-31.024c0-17.11,13.914-31.03,31.024-31.03s31.03,13.92,31.03,31.03
			C168,148.49,154.074,162.41,136.969,162.41z"/>
		<path d="M138.187,115.7c0.999,0,1.9-0.451,2.704-1.37c0.804-0.92,1.199-1.918,1.199-2.996c0-1.077-0.305-1.967-0.907-2.673
			c-0.609-0.707-1.4-1.054-2.375-1.054s-1.863,0.493-2.679,1.479c-0.811,0.986-1.206,1.998-1.206,3.045
			c0,1.06,0.292,1.912,0.877,2.576C136.384,115.371,137.182,115.7,138.187,115.7z"/>
		<path d="M142.87,148.746c-1.139,0.81-2.106,1.218-2.923,1.218c-0.81,0-1.212-0.694-1.212-2.083c0-0.694,0.062-1.559,0.171-2.6
			l0.986-11.29c0.426-4.408,0.64-6.771,0.64-7.051c0-3.324-1.103-4.98-3.295-4.98c-1.948,0-3.921,0.962-5.918,2.874
			c-1.997,1.924-3.514,4.237-4.555,6.96l1.681,1.162c2.484-3.708,4.152-5.559,4.993-5.559c0.84,0,1.254,0.919,1.254,2.776
			c0,0.688-0.036,1.468-0.115,2.308l-1.273,11.289c-0.311,3.143-0.462,5.383-0.462,6.711c0,1.333,0.304,2.447,0.913,3.343
			c0.608,0.896,1.656,1.346,3.142,1.346c4.726,0,8.16-2.856,10.291-8.567l-1.498-1.041
			C144.946,146.876,144.008,147.937,142.87,148.746z"/>
	</g>
</g>
<g>
</g>
<g>
</g>
<g>
</g>
<g>
</g>
<g>
</g>
<g>
</g>
<g>
</g>
<g>
</g>
<g>
</g>
<g>
</g>
<g>
</g>
<g>
</g>
<g>
</g>
<g>
</g>
<g>
</g>
</svg>
