<?xml version="1.0" encoding="UTF-8"?>
<svg xmlns="http://www.w3.org/2000/svg" xmlns:xlink="http://www.w3.org/1999/xlink" width="40pt" height="40pt" viewBox="0 0 40 40" version="1.1">
<g id="surface1">
<path style=" stroke:none;fill-rule:nonzero;fill:rgb(0%,0%,0%);fill-opacity:1;" d="M 15.746094 5.484375 C 15.746094 7.050781 14.476562 8.324219 12.90625 8.324219 C 11.339844 8.324219 10.066406 7.050781 10.066406 5.484375 C 10.066406 3.914062 11.339844 2.644531 12.90625 2.644531 C 14.476562 2.644531 15.746094 3.914062 15.746094 5.484375 Z M 15.746094 5.484375 "/>
<path style=" stroke:none;fill-rule:nonzero;fill:rgb(0%,0%,0%);fill-opacity:1;" d="M 39.753906 23.613281 L 36.53125 19.1875 C 36.457031 19.085938 36.371094 18.996094 36.269531 18.917969 L 31.53125 15.320312 C 31.171875 15.046875 30.710938 14.992188 30.3125 15.136719 C 29.964844 15.171875 30.101562 15.144531 26.621094 16.476562 C 26.207031 16.632812 25.882812 16.917969 25.667969 17.265625 L 27.691406 16.832031 L 23.320312 19.035156 C 19.28125 16.734375 19.234375 16.617188 18.691406 16.667969 C 18.433594 16.480469 18.34375 16.484375 17.046875 16.152344 L 13.945312 15.355469 L 12.335938 10.734375 L 13.5625 12.5625 L 13.773438 12.003906 C 14.152344 11.015625 13.65625 9.90625 12.664062 9.527344 C 9.1875 8.203125 9.320312 8.226562 8.96875 8.191406 C 8.632812 8.070312 8.25 8.085938 7.910156 8.273438 L 2.660156 11.160156 C 2.417969 11.296875 2.222656 11.507812 2.109375 11.761719 L 0.113281 16.191406 C -0.179688 16.839844 0.109375 17.601562 0.757812 17.890625 C 1.40625 18.183594 2.167969 17.894531 2.460938 17.246094 L 4.277344 13.207031 L 5.882812 12.324219 L 3.535156 18.632812 C 3.535156 18.632812 3.371094 20.214844 2.542969 31.546875 C 2.480469 32.375 3.101562 33.09375 3.925781 33.152344 C 3.933594 33.152344 3.941406 33.152344 3.945312 33.152344 L 1.453125 33.152344 C 1.125 33.152344 0.859375 33.421875 0.859375 33.75 L 0.859375 36.761719 C 0.859375 37.089844 1.125 37.355469 1.453125 37.355469 L 13.820312 37.355469 C 14.148438 37.355469 14.417969 37.089844 14.417969 36.761719 L 14.417969 33.75 C 14.417969 33.421875 14.148438 33.152344 13.820312 33.152344 L 11.589844 33.152344 C 12.386719 33.121094 13.023438 32.464844 13.023438 31.660156 L 13.023438 24.601562 C 13.023438 24.316406 12.941406 24.035156 12.789062 23.796875 L 10.589844 20.34375 L 11.34375 18.367188 C 10.847656 17.953125 10.554688 17.367188 10.511719 16.980469 L 9.964844 11.75 L 11.742188 16.851562 C 11.882812 17.257812 12.21875 17.566406 12.636719 17.675781 C 18.105469 19.082031 17.75 19.019531 18.058594 18.988281 C 18.160156 19.0625 17.753906 18.824219 22.644531 21.609375 C 23.023438 21.828125 23.484375 21.832031 23.863281 21.640625 L 28.6875 19.210938 L 26.355469 21.164062 L 28.214844 26.035156 L 26.277344 27.578125 C 26.019531 27.78125 25.835938 28.0625 25.757812 28.378906 L 23.933594 35.480469 C 23.726562 36.285156 24.210938 37.101562 25.011719 37.304688 C 25.8125 37.511719 26.632812 37.027344 26.835938 36.226562 L 28.535156 29.609375 L 31.625 27.152344 L 32.167969 26.945312 L 31.601562 30.164062 C 31.539062 30.535156 31.617188 30.921875 31.820312 31.238281 L 35.339844 36.667969 C 35.792969 37.363281 36.71875 37.5625 37.414062 37.113281 C 38.109375 36.660156 38.308594 35.734375 37.855469 35.039062 L 34.65625 30.101562 L 35.429688 25.699219 L 33.78125 20.261719 L 34.5625 20.855469 L 37.671875 25.128906 C 38.089844 25.703125 38.894531 25.828125 39.46875 25.410156 C 40.046875 24.992188 40.171875 24.1875 39.753906 23.613281 Z M 11.460938 33.152344 L 4.105469 33.152344 C 4.855469 33.121094 5.472656 32.53125 5.53125 31.769531 L 6.414062 19.730469 L 6.722656 19.847656 L 10.027344 25.039062 L 10.027344 31.660156 C 10.027344 32.464844 10.664062 33.121094 11.460938 33.152344 Z M 11.460938 33.152344 "/>
<path style=" stroke:none;fill-rule:nonzero;fill:rgb(0%,0%,0%);fill-opacity:1;" d="M 29.21875 12.429688 C 29.21875 14 27.949219 15.269531 26.378906 15.269531 C 24.8125 15.269531 23.539062 14 23.539062 12.429688 C 23.539062 10.863281 24.8125 9.589844 26.378906 9.589844 C 27.949219 9.589844 29.21875 10.863281 29.21875 12.429688 Z M 29.21875 12.429688 "/>
</g>
</svg>
