<svg width="1411" height="480" viewBox="0 0 1411 480" xmlns="http://www.w3.org/2000/svg"><title>Group 3</title><g fill="none" fill-rule="evenodd" opacity=".2"><g stroke="#FFF" stroke-width="2"><path d="M280 137.584V139a4 4 0 0 0 4 4h4m-8-14.594V128a7 7 0 0 1 7-7h2a7 7 0 0 1 7 7v.422"/><path d="M283 128.101a5 5 0 1 0 0 9.798v-9.798zm10 9.798a5 5 0 1 0 0-9.798v9.798z" stroke-linecap="square"/></g><g stroke="#FFF" stroke-width="2"><path d="M761.799 187.601C763.092 189.61 765.826 191 769 191c.59 0 1.163-.051 1.716-.142L775 193v-4.04c1.241-1.057 2-2.44 2-3.96 0-1.552-.792-2.961-2.081-4.027"/><path d="M765 172c-5.523 0-10 3.582-10 8 0 1.797.75 3.45 2 4.785V190l4.833-2.416c.996.266 2.059.416 3.167.416 5.523 0 10-3.582 10-8s-4.477-8-10-8z" stroke-linecap="square"/></g><path d="M355.102 260h-36.204c-1.6 0-2.898-1.326-2.898-2.962v-52.076c0-1.636 1.298-2.962 2.898-2.962h36.204c1.6 0 2.898 1.326 2.898 2.962v52.076c0 1.636-1.298 2.962-2.898 2.962z"/><path d="M355.102 260h-36.204c-1.6 0-2.898-1.326-2.898-2.962v-52.076c0-1.636 1.298-2.962 2.898-2.962h36.204c1.6 0 2.898 1.326 2.898 2.962v52.076c0 1.636-1.298 2.962-2.898 2.962z" stroke="#FFF" stroke-width="2" stroke-linecap="round"/><path d="M316 208h42v44h-42z"/><path stroke="#FFF" stroke-width="2" stroke-linecap="round" d="M316 208h42v44h-42zm4 8l4-4m-4 9l2-2m4-4l3-3m-9 14l9-9m4-4l1-1m4-7h1"/><path d="M341 256a3 3 0 1 1-6 0 3 3 0 0 1 6 0z"/><path d="M341 256a3 3 0 1 1-6 0 3 3 0 0 1 6 0z" stroke="#FFF" stroke-width="2" stroke-linecap="round"/><path d="M1024.102 80h-36.204c-1.6 0-2.898-1.326-2.898-2.962V24.962c0-1.636 1.298-2.962 2.898-2.962h36.204c1.6 0 2.898 1.326 2.898 2.962v52.076c0 1.636-1.298 2.962-2.898 2.962z"/><path d="M1024.102 80h-36.204c-1.6 0-2.898-1.326-2.898-2.962V24.962c0-1.636 1.298-2.962 2.898-2.962h36.204c1.6 0 2.898 1.326 2.898 2.962v52.076c0 1.636-1.298 2.962-2.898 2.962z" stroke="#FFF" stroke-width="2" stroke-linecap="round"/><path d="M985 28h42v44h-42z"/><path stroke="#FFF" stroke-width="2" stroke-linecap="round" d="M985 28h42v44h-42zm4 8l4-4m-4 9l2-2m4-4l3-3m-9 14l9-9m4-4l1-1m4-7h1"/><path d="M1010 76a3 3 0 1 1-6 0 3 3 0 0 1 6 0z"/><path d="M1010 76a3 3 0 1 1-6 0 3 3 0 0 1 6 0z" stroke="#FFF" stroke-width="2" stroke-linecap="round"/><path d="M693.462 326.735l-15.626-2.694a69.636 69.636 0 0 0-23.672 0l-15.625 2.694a1.316 1.316 0 0 1-1.539-1.296v-34.878c0-.815.735-1.434 1.539-1.296l15.625 2.694a69.636 69.636 0 0 0 23.672 0l15.626-2.694a1.316 1.316 0 0 1 1.538 1.296v34.878c0 .815-.735 1.434-1.538 1.296z"/><path d="M693.462 326.735l-15.626-2.694a69.636 69.636 0 0 0-23.672 0l-15.625 2.694a1.316 1.316 0 0 1-1.539-1.296v-34.878c0-.815.735-1.434 1.539-1.296l15.625 2.694a69.636 69.636 0 0 0 23.672 0l15.626-2.694a1.316 1.316 0 0 1 1.538 1.296v34.878c0 .815-.735 1.434-1.538 1.296z" stroke="#FFF" stroke-width="2" stroke-linecap="round"/><path d="M652 328h28v3h-28z"/><path stroke="#FFF" stroke-width="2" stroke-linecap="round" d="M652 328h28v3h-28zm14-5v5m-22-26l4-4m-4 9l2-2m4-4l3-3m-9 14l9-9m4-4l1-1"/><path d="M1247 98h4v7h-4z"/><path stroke="#FFF" stroke-width="2" d="M1247 98h4v7h-4z"/><path d="M1289 98h4v7h-4z"/><path stroke="#FFF" stroke-width="2" d="M1289 98h4v7h-4z"/><path d="M1251.514 125h-5.224a.29.29 0 0 1-.29-.29v-19.227c0-.267.216-.483.483-.483h4.73a3.786 3.786 0 0 1 3.787 3.787v12.727a3.486 3.486 0 0 1-3.486 3.486z"/><path d="M1251.514 125h-5.224a.29.29 0 0 1-.29-.29v-19.227c0-.267.216-.483.483-.483h4.73a3.786 3.786 0 0 1 3.787 3.787v12.727a3.486 3.486 0 0 1-3.486 3.486z" stroke="#FFF" stroke-width="2"/><path d="M1246 125a5 5 0 0 1-5-5v-10a5 5 0 0 1 5-5v20z"/><path d="M1246 125a5 5 0 0 1-5-5v-10a5 5 0 0 1 5-5v20z" stroke="#FFF" stroke-width="2"/><path d="M1294 125v-20a5 5 0 0 1 5 5v10a5 5 0 0 1-5 5z"/><path d="M1294 125v-20a5 5 0 0 1 5 5v10a5 5 0 0 1-5 5z" stroke="#FFF" stroke-width="2"/><path d="M1293.71 125h-5.224a3.486 3.486 0 0 1-3.486-3.486v-12.727a3.786 3.786 0 0 1 3.787-3.787h4.882a.33.33 0 0 1 .331.331v19.379c0 .16-.13.29-.29.29z"/><path d="M1293.71 125h-5.224a3.486 3.486 0 0 1-3.486-3.486v-12.727a3.786 3.786 0 0 1 3.787-3.787h4.882a.33.33 0 0 1 .331.331v19.379c0 .16-.13.29-.29.29z" stroke="#FFF" stroke-width="2"/><path d="M1252 109h3m-3 4h3m-3 4h3m-3 4h3m30-12h3m-3 4h3m-3 4h3m-3 4h3" stroke="#FFF" stroke-width="2" stroke-linecap="round"/><path d="M1284.483 84.495c-.719.662-1.81.656-2.549.016-2.627-2.275-8.42-3.511-11.934-3.511-3.514 0-9.307 1.236-11.934 3.511-.739.64-1.83.646-2.549-.016l-3.101-2.85c-.818-.751-.835-2.055-.012-2.801C1256.527 75.109 1264.423 73 1270 73s13.473 2.109 17.596 5.844c.823.746.806 2.05-.012 2.801l-3.101 2.85z"/><path d="M1284.483 84.495c-.719.662-1.81.656-2.549.016-2.627-2.275-8.42-3.511-11.934-3.511-3.514 0-9.307 1.236-11.934 3.511-.739.64-1.83.646-2.549-.016l-3.101-2.85c-.818-.751-.835-2.055-.012-2.801C1256.527 75.109 1264.423 73 1270 73s13.473 2.109 17.596 5.844c.823.746.806 2.05-.012 2.801l-3.101 2.85z" stroke="#FFF" stroke-width="2" stroke-linecap="round"/><path d="M1255.517 84.495l-3.101-2.85a1.895 1.895 0 0 1-.524-.843c-3.673 4.066-5.892 9.594-5.892 15.584V98h6v-1.614c0-4.366 1.622-8.462 4.304-11.466a1.857 1.857 0 0 1-.787-.425z"/><path d="M1255.517 84.495l-3.101-2.85a1.895 1.895 0 0 1-.524-.843c-3.673 4.066-5.892 9.594-5.892 15.584V98h6v-1.614c0-4.366 1.622-8.462 4.304-11.466a1.857 1.857 0 0 1-.787-.425z" stroke="#FFF" stroke-width="2"/><path d="M1287.949 81.169a1.865 1.865 0 0 1-.365.476l-3.101 2.85a1.864 1.864 0 0 1-1.24.493c2.904 2.999 4.757 7.063 4.757 11.398V98h6v-1.614c0-5.812-2.324-11.188-6.051-15.217z"/><path d="M1287.949 81.169a1.865 1.865 0 0 1-.365.476l-3.101 2.85a1.864 1.864 0 0 1-1.24.493c2.904 2.999 4.757 7.063 4.757 11.398V98h6v-1.614c0-5.812-2.324-11.188-6.051-15.217z" stroke="#FFF" stroke-width="2"/><path d="M112 330h4v7h-4z"/><path stroke="#FFF" stroke-width="2" d="M112 330h4v7h-4z"/><path d="M154 330h4v7h-4z"/><path stroke="#FFF" stroke-width="2" d="M154 330h4v7h-4z"/><path d="M116.514 357h-5.224a.29.29 0 0 1-.29-.29v-19.227c0-.267.216-.483.483-.483h4.73a3.786 3.786 0 0 1 3.787 3.787v12.727a3.486 3.486 0 0 1-3.486 3.486z"/><path d="M116.514 357h-5.224a.29.29 0 0 1-.29-.29v-19.227c0-.267.216-.483.483-.483h4.73a3.786 3.786 0 0 1 3.787 3.787v12.727a3.486 3.486 0 0 1-3.486 3.486z" stroke="#FFF" stroke-width="2"/><path d="M111 357a5 5 0 0 1-5-5v-10a5 5 0 0 1 5-5v20z"/><path d="M111 357a5 5 0 0 1-5-5v-10a5 5 0 0 1 5-5v20z" stroke="#FFF" stroke-width="2"/><path d="M159 357v-20a5 5 0 0 1 5 5v10a5 5 0 0 1-5 5z"/><path d="M159 357v-20a5 5 0 0 1 5 5v10a5 5 0 0 1-5 5z" stroke="#FFF" stroke-width="2"/><path d="M158.71 357h-5.224a3.486 3.486 0 0 1-3.486-3.486v-12.727a3.786 3.786 0 0 1 3.787-3.787h4.882a.33.33 0 0 1 .331.331v19.379c0 .16-.13.29-.29.29z"/><path d="M158.71 357h-5.224a3.486 3.486 0 0 1-3.486-3.486v-12.727a3.786 3.786 0 0 1 3.787-3.787h4.882a.33.33 0 0 1 .331.331v19.379c0 .16-.13.29-.29.29z" stroke="#FFF" stroke-width="2"/><path d="M117 341h3m-3 4h3m-3 4h3m-3 4h3m30-12h3m-3 4h3m-3 4h3m-3 4h3" stroke="#FFF" stroke-width="2" stroke-linecap="round"/><path d="M149.483 316.495c-.719.662-1.81.656-2.549.016-2.627-2.275-8.42-3.511-11.934-3.511-3.514 0-9.307 1.236-11.934 3.511-.739.64-1.83.646-2.549-.016l-3.101-2.85c-.818-.751-.835-2.055-.012-2.801C121.527 307.109 129.423 305 135 305s13.473 2.109 17.596 5.844c.823.746.806 2.05-.012 2.801l-3.101 2.85z"/><path d="M149.483 316.495c-.719.662-1.81.656-2.549.016-2.627-2.275-8.42-3.511-11.934-3.511-3.514 0-9.307 1.236-11.934 3.511-.739.64-1.83.646-2.549-.016l-3.101-2.85c-.818-.751-.835-2.055-.012-2.801C121.527 307.109 129.423 305 135 305s13.473 2.109 17.596 5.844c.823.746.806 2.05-.012 2.801l-3.101 2.85z" stroke="#FFF" stroke-width="2" stroke-linecap="round"/><path d="M120.517 316.495l-3.101-2.85a1.895 1.895 0 0 1-.524-.843c-3.673 4.066-5.892 9.594-5.892 15.584V330h6v-1.614c0-4.366 1.622-8.462 4.304-11.466a1.857 1.857 0 0 1-.787-.425z"/><path d="M120.517 316.495l-3.101-2.85a1.895 1.895 0 0 1-.524-.843c-3.673 4.066-5.892 9.594-5.892 15.584V330h6v-1.614c0-4.366 1.622-8.462 4.304-11.466a1.857 1.857 0 0 1-.787-.425z" stroke="#FFF" stroke-width="2"/><path d="M152.949 313.169a1.865 1.865 0 0 1-.365.476l-3.101 2.85a1.864 1.864 0 0 1-1.24.493c2.904 2.999 4.757 7.063 4.757 11.398V330h6v-1.614c0-5.812-2.324-11.188-6.051-15.217z"/><path d="M152.949 313.169a1.865 1.865 0 0 1-.365.476l-3.101 2.85a1.864 1.864 0 0 1-1.24.493c2.904 2.999 4.757 7.063 4.757 11.398V330h6v-1.614c0-5.812-2.324-11.188-6.051-15.217z" stroke="#FFF" stroke-width="2"/><path d="M1110.857 444h-43.714a3.143 3.143 0 0 1-3.143-3.143v-41.714a3.143 3.143 0 0 1 3.143-3.143h43.714a3.143 3.143 0 0 1 3.143 3.143v41.714a3.143 3.143 0 0 1-3.143 3.143z"/><path d="M1110.857 444h-43.714a3.143 3.143 0 0 1-3.143-3.143v-41.714a3.143 3.143 0 0 1 3.143-3.143h43.714a3.143 3.143 0 0 1 3.143 3.143v41.714a3.143 3.143 0 0 1-3.143 3.143z" stroke="#FFF" stroke-width="2"/><path d="M1068 444h42v10h-42z"/><path stroke="#FFF" stroke-width="2" stroke-linecap="round" d="M1068 444h42v10h-42z"/><path d="M1096 447h11v4h-11z"/><path stroke="#FFF" stroke-width="2" d="M1096 447h11v4h-11z"/><path d="M1103 451h4v-4h-4z"/><path stroke="#FFF" stroke-width="2" d="M1103 451h4v-4h-4z"/><path d="M1106.128 430h-34.256a3.873 3.873 0 0 1-3.872-3.872v-21.256a3.873 3.873 0 0 1 3.872-3.872h34.256a3.873 3.873 0 0 1 3.872 3.872v21.256a3.873 3.873 0 0 1-3.872 3.872z"/><path d="M1106.128 430h-34.256a3.873 3.873 0 0 1-3.872-3.872v-21.256a3.873 3.873 0 0 1 3.872-3.872h34.256a3.873 3.873 0 0 1 3.872 3.872v21.256a3.873 3.873 0 0 1-3.872 3.872z" stroke="#FFF" stroke-width="2"/><path d="M1073 410l4-4m-4 9l2-2m4-4l3-3m-9 14l9-9m4-4l1-1" stroke="#FFF" stroke-width="2" stroke-linecap="round"/><path d="M1070 438h4v3h-4z"/><path stroke="#FFF" stroke-width="2" d="M1070 438h4v3h-4zm20-1h11m6 0h3"/><path d="M1100 435h7v4h-7z"/><path stroke="#FFF" stroke-width="2" d="M1100 435h7v4h-7z"/><path d="M1405 20h-22l-4.212 6.425a7.46 7.46 0 0 0-.788 3.336v24.478c0 1.158.27 2.3.788 3.336L1383 64h22l4.212-6.425a7.46 7.46 0 0 0 .788-3.336V29.761c0-1.158-.27-2.3-.788-3.336L1405 20z"/><path d="M1405 20h-22l-4.212 6.425a7.46 7.46 0 0 0-.788 3.336v24.478c0 1.158.27 2.3.788 3.336L1383 64h22l4.212-6.425a7.46 7.46 0 0 0 .788-3.336V29.761c0-1.158-.27-2.3-.788-3.336L1405 20z" stroke="#FFF" stroke-width="2" stroke-linecap="round"/><path d="M1403.579 54h-19.158a2.421 2.421 0 0 1-2.421-2.421V30.421a2.421 2.421 0 0 1 2.421-2.421h19.158a2.421 2.421 0 0 1 2.421 2.421v21.158a2.421 2.421 0 0 1-2.421 2.421z"/><path d="M1403.579 54h-19.158a2.421 2.421 0 0 1-2.421-2.421V30.421a2.421 2.421 0 0 1 2.421-2.421h19.158a2.421 2.421 0 0 1 2.421 2.421v21.158a2.421 2.421 0 0 1-2.421 2.421z" stroke="#FFF" stroke-width="2" stroke-linecap="round"/><path d="M1395.455 61h-2.91a.545.545 0 0 1-.545-.545v-2.91c0-.301.244-.545.545-.545h2.91c.301 0 .545.244.545.545v2.91a.545.545 0 0 1-.545.545z" fill="#FFF"/><path d="M1395.455 61h-2.91a.545.545 0 0 1-.545-.545v-2.91c0-.301.244-.545.545-.545h2.91c.301 0 .545.244.545.545v2.91a.545.545 0 0 1-.545.545z" stroke="#FFF" stroke-width="2" stroke-linecap="round"/><path d="M1383 13h22v7h-22z"/><path stroke="#FFF" stroke-width="2" stroke-linecap="round" d="M1383 13h22v7h-22z"/><path d="M1383 64h22v7h-22z"/><path stroke="#FFF" stroke-width="2" stroke-linecap="round" d="M1383 64h22v7h-22zm3-28l4-4m-4 9l2-2m4-4l3-3m-9 14l9-9m4-4l1-1"/><path d="M467 428h-22l-4.212 6.425a7.46 7.46 0 0 0-.788 3.336v24.478c0 1.158.27 2.3.788 3.336L445 472h22l4.212-6.425a7.46 7.46 0 0 0 .788-3.336v-24.478c0-1.158-.27-2.3-.788-3.336L467 428z"/><path d="M467 428h-22l-4.212 6.425a7.46 7.46 0 0 0-.788 3.336v24.478c0 1.158.27 2.3.788 3.336L445 472h22l4.212-6.425a7.46 7.46 0 0 0 .788-3.336v-24.478c0-1.158-.27-2.3-.788-3.336L467 428z" stroke="#FFF" stroke-width="2" stroke-linecap="round"/><path d="M465.579 462h-19.158a2.421 2.421 0 0 1-2.421-2.421v-21.158a2.421 2.421 0 0 1 2.421-2.421h19.158a2.421 2.421 0 0 1 2.421 2.421v21.158a2.421 2.421 0 0 1-2.421 2.421z"/><path d="M465.579 462h-19.158a2.421 2.421 0 0 1-2.421-2.421v-21.158a2.421 2.421 0 0 1 2.421-2.421h19.158a2.421 2.421 0 0 1 2.421 2.421v21.158a2.421 2.421 0 0 1-2.421 2.421z" stroke="#FFF" stroke-width="2" stroke-linecap="round"/><path d="M457.455 469h-2.91a.545.545 0 0 1-.545-.545v-2.91c0-.301.244-.545.545-.545h2.91c.301 0 .545.244.545.545v2.91a.545.545 0 0 1-.545.545z" fill="#FFF"/><path d="M457.455 469h-2.91a.545.545 0 0 1-.545-.545v-2.91c0-.301.244-.545.545-.545h2.91c.301 0 .545.244.545.545v2.91a.545.545 0 0 1-.545.545z" stroke="#FFF" stroke-width="2" stroke-linecap="round"/><path d="M445 421h22v7h-22z"/><path stroke="#FFF" stroke-width="2" stroke-linecap="round" d="M445 421h22v7h-22z"/><path d="M445 472h22v7h-22z"/><path stroke="#FFF" stroke-width="2" stroke-linecap="round" d="M445 472h22v7h-22zm3-28l4-4m-4 9l2-2m4-4l3-3m-9 14l9-9m4-4l1-1"/><g transform="translate(1230 5)"><path d="M4.237 14.938l-3.101 5.169c-.442.737.19 1.652 1.036 1.498L11 20l8.828 1.605c.846.154 1.479-.761 1.036-1.498l-3.102-5.17" stroke="#FFF" stroke-width="2"/><circle stroke="#FFF" stroke-width="2" stroke-linecap="square" cx="11" cy="9" r="9"/><circle stroke="#FFF" stroke-width="2" stroke-linecap="square" cx="11" cy="10" r="4"/><circle fill="#5D6D81" fill-rule="nonzero" cx="11" cy="10" r="1"/></g><g stroke="#FFF" stroke-width="2"><path d="M58 212v2m-5-1v2m10-2v2" stroke-linecap="square"/><path d="M67 219h4v4c0 1.1-.9 2-2 2h-2.5"/><path d="M58 231c-5 0-9-4-9-9v-3h18v3c0 5-4 9-9 9zm-9 3h18" stroke-linecap="square"/></g><g transform="translate(166 169)" stroke="#FFF" stroke-width="2"><path d="M17.9 6L16 22H4L2.1 6"/><path stroke-linecap="square" d="M15 2l-1-2H6L5 2H0v4h20V2z"/><circle stroke-linecap="square" cx="10" cy="13" r="3"/></g><g transform="translate(1075 320)" stroke="#FFF" stroke-width="2"><path d="M17.9 6L16 22H4L2.1 6"/><path stroke-linecap="square" d="M15 2l-1-2H6L5 2H0v4h20V2z"/><circle stroke-linecap="square" cx="10" cy="13" r="3"/></g><g stroke-width="2" stroke="#FFF"><path d="M171 56l5 6-2.5 2.9M167 56l-3 11 5 5 5-5-3-11"/><path stroke-linecap="square" d="M171 56h-4l-2-4h8z"/></g><path d="M1263 245h-50a4 4 0 0 0-4 4v2h58v-2a4 4 0 0 0-4-4"/><path d="M1263 245h-50a4 4 0 0 0-4 4v2h58v-2a4 4 0 0 0-4-4z" stroke="#FFF" stroke-width="2" stroke-linecap="round" stroke-linejoin="round"/><path d="M1261 216c0-12.703-10.297-23-23-23s-23 10.297-23 23 10.297 23 23 23 23-10.297 23-23"/><path d="M1261 216c0-12.703-10.297-23-23-23s-23 10.297-23 23 10.297 23 23 23 23-10.297 23-23z" stroke="#FFF" stroke-width="2" stroke-linecap="round" stroke-linejoin="round"/><path d="M1246 216a8 8 0 1 0-16 0 8 8 0 0 0 16 0"/><path d="M1246 216a8 8 0 1 0-16 0 8 8 0 0 0 16 0zm-12 0c0-2.206 1.794-4 4-4" stroke="#FFF" stroke-width="2" stroke-linecap="round" stroke-linejoin="round"/><path d="M1238 239a22.897 22.897 0 0 1-14.289-4.984L1215 245h46l-8.711-10.984A22.897 22.897 0 0 1 1238 239"/><path d="M1238 239a22.897 22.897 0 0 1-14.289-4.984L1215 245h46l-8.711-10.984A22.897 22.897 0 0 1 1238 239zm-22 9h-6.874m50.874 0h6.874" stroke="#FFF" stroke-width="2" stroke-linecap="round" stroke-linejoin="round"/><path d="M1238 193c-12.703 0-23 10.297-23 23 2.102 0 3.94-1.474 4.331-3.539C1220.993 203.67 1228.732 197 1238 197s17.007 6.67 18.67 15.461c.391 2.065 2.228 3.539 4.33 3.539 0-12.703-10.297-23-23-23"/><path d="M1238 193c-12.703 0-23 10.297-23 23 2.102 0 3.94-1.474 4.331-3.539C1220.993 203.67 1228.732 197 1238 197s17.007 6.67 18.67 15.461c.391 2.065 2.228 3.539 4.33 3.539 0-12.703-10.297-23-23-23z" stroke="#FFF" stroke-width="2" stroke-linecap="round" stroke-linejoin="round"/><path d="M67.774 146H46.226c-.224 0-.311-.307-.124-.437l1.805-1.273c1.947-1.374 2.868-3.891 2.3-6.29h13.587v.002c-.568 2.399.353 4.917 2.302 6.29l1.803 1.271c.186.131.098.437-.125.437z"/><path d="M67.774 146H46.226c-.224 0-.311-.307-.124-.437l1.805-1.273c1.947-1.374 2.868-3.891 2.3-6.29h13.587v.002c-.568 2.399.353 4.917 2.302 6.29l1.803 1.271c.186.131.098.437-.125.437z" stroke="#FFF" stroke-width="2" stroke-linecap="round"/><path d="M82.502 138H31.498A3.498 3.498 0 0 1 28 134.501V97.498A3.498 3.498 0 0 1 31.498 94h51.004A3.498 3.498 0 0 1 86 97.498v37.003A3.498 3.498 0 0 1 82.502 138z"/><path d="M82.502 138H31.498A3.498 3.498 0 0 1 28 134.501V97.498A3.498 3.498 0 0 1 31.498 94h51.004A3.498 3.498 0 0 1 86 97.498v37.003A3.498 3.498 0 0 1 82.502 138z" stroke="#FFF" stroke-width="2" stroke-linecap="round"/><path d="M86 129H28V97.498A3.498 3.498 0 0 1 31.498 94h51.004A3.498 3.498 0 0 1 86 97.498V129z"/><path d="M86 129H28V97.498A3.498 3.498 0 0 1 31.498 94h51.004A3.498 3.498 0 0 1 86 97.498V129zm-54-27l4-4m-4 9l2-2m4-4l3-3m-9 14l9-9m4-4l1-1" stroke="#FFF" stroke-width="2" stroke-linecap="round"/><path d="M68.5 149h-23c-.825 0-1.5-.675-1.5-1.5s.675-1.5 1.5-1.5h23c.825 0 1.5.675 1.5 1.5s-.675 1.5-1.5 1.5z"/><path d="M68.5 149h-23c-.825 0-1.5-.675-1.5-1.5s.675-1.5 1.5-1.5h23c.825 0 1.5.675 1.5 1.5s-.675 1.5-1.5 1.5z" stroke="#FFF" stroke-width="2" stroke-linecap="round"/><path d="M1338.774 384h-21.548c-.224 0-.311-.307-.124-.437l1.805-1.273c1.947-1.374 2.868-3.891 2.3-6.29h13.587v.002c-.568 2.399.353 4.917 2.302 6.29l1.803 1.271c.186.131.098.437-.125.437z"/><path d="M1338.774 384h-21.548c-.224 0-.311-.307-.124-.437l1.805-1.273c1.947-1.374 2.868-3.891 2.3-6.29h13.587v.002c-.568 2.399.353 4.917 2.302 6.29l1.803 1.271c.186.131.098.437-.125.437z" stroke="#FFF" stroke-width="2" stroke-linecap="round"/><path d="M1353.502 376h-51.004a3.498 3.498 0 0 1-3.498-3.499v-37.003a3.498 3.498 0 0 1 3.498-3.498h51.004a3.498 3.498 0 0 1 3.498 3.498v37.003a3.498 3.498 0 0 1-3.498 3.499z"/><path d="M1353.502 376h-51.004a3.498 3.498 0 0 1-3.498-3.499v-37.003a3.498 3.498 0 0 1 3.498-3.498h51.004a3.498 3.498 0 0 1 3.498 3.498v37.003a3.498 3.498 0 0 1-3.498 3.499z" stroke="#FFF" stroke-width="2" stroke-linecap="round"/><path d="M1357 367h-58v-31.502a3.498 3.498 0 0 1 3.498-3.498h51.004a3.498 3.498 0 0 1 3.498 3.498V367z"/><path d="M1357 367h-58v-31.502a3.498 3.498 0 0 1 3.498-3.498h51.004a3.498 3.498 0 0 1 3.498 3.498V367zm-54-27l4-4m-4 9l2-2m4-4l3-3m-9 14l9-9m4-4l1-1" stroke="#FFF" stroke-width="2" stroke-linecap="round"/><path d="M1339.5 387h-23c-.825 0-1.5-.675-1.5-1.5s.675-1.5 1.5-1.5h23c.825 0 1.5.675 1.5 1.5s-.675 1.5-1.5 1.5z"/><path d="M1339.5 387h-23c-.825 0-1.5-.675-1.5-1.5s.675-1.5 1.5-1.5h23c.825 0 1.5.675 1.5 1.5s-.675 1.5-1.5 1.5z" stroke="#FFF" stroke-width="2" stroke-linecap="round"/><path d="M873 62c0 8.284-6.716 15-15 15-8.284 0-15-6.716-15-15 0-8.284 6.716-15 15-15 8.284 0 15 6.716 15 15z"/><path d="M873 62c0 8.284-6.716 15-15 15-8.284 0-15-6.716-15-15 0-8.284 6.716-15 15-15 8.284 0 15 6.716 15 15z" stroke="#FFF" stroke-width="2"/><path d="M858 32v15c6.897 0 12.692 4.661 14.444 11H884V32h-26z"/><path d="M858 32v15c6.897 0 12.692 4.661 14.444 11H884V32h-26z" stroke="#FFF" stroke-width="2" stroke-linejoin="round"/><path d="M858 47v-3.11l-11.814-20.675L826 58h17.556c1.753-6.339 7.547-11 14.444-11z"/><path d="M858 47v-3.11l-11.814-20.675L826 58h17.556c1.753-6.339 7.547-11 14.444-11z" stroke="#FFF" stroke-width="2" stroke-linejoin="round"/><path d="M844 37a1 1 0 1 1-2 0 1 1 0 0 1 2 0m0-6a1 1 0 1 1-2 0 1 1 0 0 1 2 0m-3 3a1 1 0 1 1-2 0 1 1 0 0 1 2 0m6-6a1 1 0 1 1-2 0 1 1 0 0 1 2 0m0 6a1 1 0 1 1-2 0 1 1 0 0 1 2 0m3 3a1 1 0 1 1-2 0 1 1 0 0 1 2 0m0-6a1 1 0 1 1-2 0 1 1 0 0 1 2 0m3 3a1 1 0 1 1-2 0 1 1 0 0 1 2 0m-9 15a1 1 0 1 1-2 0 1 1 0 0 1 2 0m-6-6a1 1 0 1 1-2 0 1 1 0 0 1 2 0m6 0a1 1 0 1 1-2 0 1 1 0 0 1 2 0m-3-3a1 1 0 1 1-2 0 1 1 0 0 1 2 0m-6 6a1 1 0 1 1-2 0 1 1 0 0 1 2 0m3 3a1 1 0 1 1-2 0 1 1 0 0 1 2 0m3-3a1 1 0 1 1-2 0 1 1 0 0 1 2 0m6-6a1 1 0 1 1-2 0 1 1 0 0 1 2 0m0 6a1 1 0 1 1-2 0 1 1 0 0 1 2 0m3 3a1 1 0 1 1-2 0 1 1 0 0 1 2 0m0-6a1 1 0 1 1-2 0 1 1 0 0 1 2 0m3-3a1 1 0 1 1-2 0 1 1 0 0 1 2 0m0 6a1 1 0 1 1-2 0 1 1 0 0 1 2 0m3-3a1 1 0 1 1-2 0 1 1 0 0 1 2 0m-24 12a1 1 0 1 1-2 0 1 1 0 0 1 2 0m-3 3a1 1 0 1 1-2 0 1 1 0 0 1 2 0m6-6a1 1 0 1 1-2 0 1 1 0 0 1 2 0m3 3a1 1 0 1 1-2 0 1 1 0 0 1 2 0m6 0a1 1 0 1 1-2 0 1 1 0 0 1 2 0m-3-3a1 1 0 1 1-2 0 1 1 0 0 1 2 0m-6 6a1 1 0 1 1-2 0 1 1 0 0 1 2 0m6 0a1 1 0 1 1-2 0 1 1 0 0 1 2 0m6-6a1 1 0 1 1-2 0 1 1 0 0 1 2 0" fill="#5D6D81"/><path d="M884 204h42v-42h-42z"/><path stroke="#FFF" stroke-width="2" stroke-linecap="round" stroke-linejoin="round" d="M884 204h42v-42h-42z"/><path stroke="#FFF" stroke-width="2" stroke-linecap="round" stroke-linejoin="round" stroke-dasharray="2,4,2,4,2,4" d="M934 183l-29 29-29-29 29-29z"/><path d="M932 162c0-3.316-2.684-6-6-6m4 5l2 1 2-2" stroke="#FFF" stroke-width="2" stroke-linecap="round" stroke-linejoin="round"/><path stroke="#FFF" stroke-width="2" stroke-linecap="round" stroke-linejoin="round" d="M928 154l-2 2 1 2m-49 46c0 3.316 2.684 6 6 6"/><path stroke="#FFF" stroke-width="2" stroke-linecap="round" stroke-linejoin="round" d="M880 205l-2-1-2 2m6 6l2-2-1-2"/><path d="M618 139h44v44h-44z"/><path stroke="#FFF" stroke-width="2" stroke-linecap="round" stroke-linejoin="round" d="M618 139h44v44h-44z"/><path d="M676 169l-14 14v-44l14-14z"/><path stroke="#FFF" stroke-width="2" stroke-linecap="round" stroke-linejoin="round" d="M676 169l-14 14v-44l14-14z"/><path stroke="#FFF" stroke-width="2" stroke-linecap="round" stroke-linejoin="round" stroke-dasharray="3" d="M632 139v30h30"/><path d="M662 139h-44l14-14h44z"/><path stroke="#FFF" stroke-width="2" stroke-linecap="round" stroke-linejoin="round" d="M662 139h-44l14-14h44z"/><path d="M618 183l14-14" stroke="#FFF" stroke-width="2" stroke-linecap="round" stroke-linejoin="round" stroke-dasharray="3"/><path d="M445.444 25.887l9.899 9.9-3.001 3.001a6.756 6.756 0 0 0 0 9.554l2.294 2.294L424.23 57l6.364-30.406 2.295 2.294a6.753 6.753 0 0 0 9.553 0l3.002-3.001z"/><path d="M445.444 25.887l9.899 9.9-3.001 3.001a6.756 6.756 0 0 0 0 9.554l2.294 2.294L424.23 57l6.364-30.406 2.295 2.294a6.753 6.753 0 0 0 9.553 0l3.002-3.001zM424.23 57l15.557-15.556" stroke="#FFF" stroke-width="2" stroke-linecap="round"/><path d="M448.979 22.352l9.9 9.899-3.536 3.536-9.899-9.9z"/><path stroke="#FFF" stroke-width="2" stroke-linecap="round" d="M448.979 22.352l9.9 9.899-3.536 3.536-9.899-9.9z"/><path d="M453.929 20.23L461 27.302l-3.535 3.535-7.072-7.071z"/><path stroke="#FFF" stroke-width="2" stroke-linecap="round" stroke-linejoin="round" d="M453.929 20.23L461 27.302l-3.535 3.535-7.072-7.071z"/><path d="M439.787 37.201a3 3 0 1 1 4.243 4.243 3 3 0 0 1-4.243-4.243z"/><path d="M439.787 37.201a3 3 0 1 1 4.243 4.243 3 3 0 0 1-4.243-4.243zM423 63.837C433.174 72.662 446.458 78 461 78m-58-58c0 14.452 5.272 27.661 14 37.811" stroke="#FFF" stroke-width="2" stroke-linecap="round"/><path d="M417 58h6v6h-6z"/><path stroke="#FFF" stroke-width="2" stroke-linecap="round" stroke-linejoin="round" d="M417 58h6v6h-6z"/><path d="M631.444 415.887l9.899 9.9-3.001 3.001a6.756 6.756 0 0 0 0 9.554l2.294 2.294L610.23 447l6.364-30.406 2.295 2.294a6.753 6.753 0 0 0 9.553 0l3.002-3.001z"/><path d="M631.444 415.887l9.899 9.9-3.001 3.001a6.756 6.756 0 0 0 0 9.554l2.294 2.294L610.23 447l6.364-30.406 2.295 2.294a6.753 6.753 0 0 0 9.553 0l3.002-3.001zM610.23 447l15.557-15.556" stroke="#FFF" stroke-width="2" stroke-linecap="round"/><path d="M634.979 412.352l9.9 9.899-3.536 3.536-9.899-9.9z"/><path stroke="#FFF" stroke-width="2" stroke-linecap="round" d="M634.979 412.352l9.9 9.899-3.536 3.536-9.899-9.9z"/><path d="M639.929 410.23l7.071 7.072-3.535 3.535-7.072-7.071z"/><path stroke="#FFF" stroke-width="2" stroke-linecap="round" stroke-linejoin="round" d="M639.929 410.23l7.071 7.072-3.535 3.535-7.072-7.071z"/><path d="M625.787 427.201a3 3 0 1 1 4.243 4.243 3 3 0 0 1-4.243-4.243z"/><path d="M625.787 427.201a3 3 0 1 1 4.243 4.243 3 3 0 0 1-4.243-4.243zM609 453.837C619.174 462.662 632.458 468 647 468m-58-58c0 14.452 5.272 27.661 14 37.811" stroke="#FFF" stroke-width="2" stroke-linecap="round"/><path d="M603 448h6v6h-6z"/><path stroke="#FFF" stroke-width="2" stroke-linecap="round" stroke-linejoin="round" d="M603 448h6v6h-6z"/><path d="M515 249a3 3 0 1 0-6 0 3 3 0 0 0 6 0"/><path d="M515 249a3 3 0 1 0-6 0 3 3 0 0 0 6 0z" stroke="#FFF" stroke-width="2" stroke-linecap="round" stroke-linejoin="round"/><path d="M509 249a2.99 2.99 0 0 1 1.239-2.419L496 225h29c0-15.909-13.091-29-29-29s-29 13.091-29 29 13.091 29 29 29c4.719 0 9.346-1.168 13.496-3.352A2.992 2.992 0 0 1 509 249"/><path d="M509 249a2.99 2.99 0 0 1 1.239-2.419L496 225h29c0-15.909-13.091-29-29-29s-29 13.091-29 29 13.091 29 29 29c4.719 0 9.346-1.168 13.496-3.352A2.992 2.992 0 0 1 509 249z" stroke="#FFF" stroke-width="2" stroke-linecap="round" stroke-linejoin="round"/><path d="M503.707 236.682c3.79-2.505 6.293-6.8 6.293-11.682h-14l7.707 11.682z" stroke="#FFF" stroke-width="2" stroke-linecap="round" stroke-linejoin="round" stroke-dasharray="2,4,2,4,2,4"/><path d="M1074.016 192.002h-43a2 2 0 0 0-2 2v10a2 2 0 0 0 2 2v7a3 3 0 1 0 6 0v8a3 3 0 1 0 6 0v-10.5a2.5 2.5 0 1 0 5 0v-4.5h26a2 2 0 0 0 2-2v-10a2 2 0 0 0-2-2"/><path d="M1074.016 192.002h-43a2 2 0 0 0-2 2v10a2 2 0 0 0 2 2v7a3 3 0 1 0 6 0v8a3 3 0 1 0 6 0v-10.5a2.5 2.5 0 1 0 5 0v-4.5h26a2 2 0 0 0 2-2v-10a2 2 0 0 0-2-2z" stroke="#FFF" stroke-width="2" stroke-linecap="round" stroke-linejoin="round"/><path d="M1052.016 225.002v-7.012a2.98 2.98 0 0 1 3-2.988s21.128-1.82 22.008-2c2.28-.466 3.993-2.582 3.993-5v-4c0-2.764-2.237-5-5-5m-47.001 0h-2m21 42h3m-3 4h3m-18-43l5-6m2 6l5-6m2 6l5-6m2 6l5-6m2 6l5-6m1 6l5-6" stroke="#FFF" stroke-width="2" stroke-linecap="round" stroke-linejoin="round"/><path d="M1059.016 225.002h-14l1 5h2v16a4 4 0 0 0 8 0v-16h2l1-5z"/><path d="M1059.016 225.002h-14l1 5h2v16a4 4 0 0 0 8 0v-16h2l1-5z" stroke="#FFF" stroke-width="2" stroke-linecap="round" stroke-linejoin="round"/><path d="M1037.016 210.003v3" fill="#C6E3F8" fill-rule="nonzero"/><path d="M1037.016 210.003v3m6-4.001v2" stroke="#FFF" stroke-width="2" stroke-linecap="round" stroke-linejoin="round"/><g stroke="#FFF" stroke-width="2" transform="translate(1)"><path d="M0 15.5V3c0-1.7 1.3-3 3-3h1m18 15.5V3c0-1.7-1.3-3-3-3h-1"/><path d="M9 15c0-1.1.9-2 2-2s2 .9 2 2" stroke-linecap="square"/><circle stroke-linecap="square" cx="4.5" cy="15.5" r="4.5"/><circle stroke-linecap="square" cx="17.5" cy="15.5" r="4.5"/></g><g transform="translate(173 428)"><path d="M18 22H2a2 2 0 0 1-2-2V2a2 2 0 0 1 2-2h16a2 2 0 0 1 2 2v18a2 2 0 0 1-2 2z" stroke="#FFF" stroke-width="2" stroke-linecap="square"/><circle fill="#5D6D81" fill-rule="nonzero" cx="10" cy="18" r="1"/></g><path d="M666 56.002v-46" stroke="#FFF" stroke-width="2" stroke-linecap="round" stroke-linejoin="round"/><path d="M665.818 55.944L641 48.002v-46l25 8V55.81a.14.14 0 0 1-.182.133"/><path d="M665.818 55.944L641 48.002v-46l25 8V55.81a.14.14 0 0 1-.182.133zM646.017 14.46L653 17.263m-6.983 2.739l14.964 5.522m-14.964.478l14.964 5.522m-14.964.478l14.964 5.522m-14.964.478l14.964 5.522" stroke="#FFF" stroke-width="2" stroke-linecap="round" stroke-linejoin="round"/><path d="M666.182 55.944L691 48.002v-46l-25 8V55.81a.14.14 0 0 0 .182.133"/><path d="M666.182 55.944L691 48.002v-46l-25 8V55.81a.14.14 0 0 0 .182.133z" stroke="#FFF" stroke-width="2" stroke-linecap="round" stroke-linejoin="round"/><path d="M691 10.002v38l-24.818 7.942a.14.14 0 0 1-.182-.133.14.14 0 0 1-.182.133L641 48.002v-38h-3.525a.475.475 0 0 0-.475.475v45.05c0 .262.213.475.475.475h57.05a.475.475 0 0 0 .475-.475v-45.05a.475.475 0 0 0-.475-.475H691z"/><path d="M691 10.002v38l-24.818 7.942a.14.14 0 0 1-.182-.133.14.14 0 0 1-.182.133L641 48.002v-38h-3.525a.475.475 0 0 0-.475.475v45.05c0 .262.213.475.475.475h57.05a.475.475 0 0 0 .475-.475v-45.05a.475.475 0 0 0-.475-.475H691zm-5 4l-14.964 5.522m14.964.478l-14.964 5.522m14.964.478l-14.964 5.522m14.964.478l-14.964 5.522m14.964.478l-14.964 5.522M815 364.002v-46" stroke="#FFF" stroke-width="2" stroke-linecap="round" stroke-linejoin="round"/><path d="M814.818 363.944L790 356.002v-46l25 8v45.809a.14.14 0 0 1-.182.133"/><path d="M814.818 363.944L790 356.002v-46l25 8v45.809a.14.14 0 0 1-.182.133zm-19.801-41.484l6.983 2.803m-6.983 2.739l14.964 5.522m-14.964.478l14.964 5.522m-14.964.478l14.964 5.522m-14.964.478l14.964 5.522" stroke="#FFF" stroke-width="2" stroke-linecap="round" stroke-linejoin="round"/><path d="M815.182 363.944L840 356.002v-46l-25 8v45.809a.14.14 0 0 0 .182.133"/><path d="M815.182 363.944L840 356.002v-46l-25 8v45.809a.14.14 0 0 0 .182.133z" stroke="#FFF" stroke-width="2" stroke-linecap="round" stroke-linejoin="round"/><path d="M840 318.002v38l-24.818 7.942a.14.14 0 0 1-.182-.133.14.14 0 0 1-.182.133L790 356.002v-38h-3.525a.475.475 0 0 0-.475.475v45.05c0 .262.213.475.475.475h57.05a.475.475 0 0 0 .475-.475v-45.05a.475.475 0 0 0-.475-.475H840z"/><path d="M840 318.002v38l-24.818 7.942a.14.14 0 0 1-.182-.133.14.14 0 0 1-.182.133L790 356.002v-38h-3.525a.475.475 0 0 0-.475.475v45.05c0 .262.213.475.475.475h57.05a.475.475 0 0 0 .475-.475v-45.05a.475.475 0 0 0-.475-.475H840zm-5 4l-14.964 5.522m14.964.478l-14.964 5.522m14.964.478l-14.964 5.522m14.964.478l-14.964 5.522m14.964.478l-14.964 5.522" stroke="#FFF" stroke-width="2" stroke-linecap="round" stroke-linejoin="round"/><path d="M269 24h-30l5-14h21z"/><path stroke="#FFF" stroke-width="2" stroke-linecap="round" stroke-linejoin="round" d="M269 24h-30l5-14h21z"/><path d="M283 21l-14 3-4-14 10-4z"/><path stroke="#FFF" stroke-width="2" stroke-linecap="round" stroke-linejoin="round" d="M283 21l-14 3-4-14 10-4z"/><path d="M225 21l14 3 5-14-11-4z"/><path stroke="#FFF" stroke-width="2" stroke-linecap="round" stroke-linejoin="round" d="M225 21l14 3 5-14-11-4z"/><path d="M275 6l-10 4h-21l-11-4 11-2h21z"/><path stroke="#FFF" stroke-width="2" stroke-linecap="round" stroke-linejoin="round" d="M275 6l-10 4h-21l-11-4 11-2h21z"/><path d="M225 21l14 3 5-14-11-4z"/><path stroke="#FFF" stroke-width="2" stroke-linecap="round" stroke-linejoin="round" d="M225 21l14 3 5-14-11-4z"/><path d="M269 24h-30l-14-3 29 41 29-41z"/><path stroke="#FFF" stroke-width="2" stroke-linecap="round" stroke-linejoin="round" d="M269 24h-30l-14-3 29 41 29-41zm-30 0l15 38m15-38l-15 38"/><g stroke="#FFF" stroke-width="2" stroke-linecap="square"><path d="M1177 275v11l-4-3-4 3v-11"/><path d="M1165 275h20v22h-20z"/></g><g stroke="#FFF" stroke-width="2" stroke-linecap="square"><path d="M470 321h13c1.1 0 2 .9 2 2v18c0 1.1-.9 2-2 2h-13m-3-22h3v22h-3z"/><path d="M474 325h7v4h-7zm0 7h7m-7 3h3m10-11v2m0 3v2"/></g><g stroke="#FFF" stroke-width="2" stroke-linecap="square"><path d="M775 440v-3h8v3m-6 11h-9v-11h22v11h-9m8 0v6h-20v-6"/><path d="M777 449h4v4h-4z"/></g><g stroke="#FFF" stroke-width="2" stroke-linecap="square"><path d="M1218 464h12m-17-20h22v16h-22z"/><path d="M1222 448l6 4-6 4z"/></g><g transform="translate(456 126)"><path d="M11 22v-4m-6 4h12" stroke="#FFF" stroke-width="2" stroke-linecap="square"/><circle fill="#444" fill-rule="nonzero" cx="11" cy="4" r="1"/><path d="M20 18H2a2 2 0 0 1-2-2V2a2 2 0 0 1 2-2h18a2 2 0 0 1 2 2v14a2 2 0 0 1-2 2zM0 14h22" stroke="#FFF" stroke-width="2" stroke-linecap="square"/></g><g transform="translate(35 431)"><path d="M11 22v-4m-6 4h12" stroke="#FFF" stroke-width="2" stroke-linecap="square"/><circle fill="#444" fill-rule="nonzero" cx="11" cy="4" r="1"/><path d="M20 18H2a2 2 0 0 1-2-2V2a2 2 0 0 1 2-2h18a2 2 0 0 1 2 2v14a2 2 0 0 1-2 2zM0 14h22" stroke="#FFF" stroke-width="2" stroke-linecap="square"/></g><g stroke-width="2" stroke="#FFF"><path d="M1057 130.1l-4 2.9v12h22v-12l-4-2.9"/><path d="M1057 135.2V123h14v12.2m-18-2.2l22 12m0-12l-11 6"/><path stroke-linecap="square" d="M1062 128l-2 2 2 2m4-4l2 2-2 2"/></g><g stroke-width="2" stroke="#FFF"><path d="M301 311l-15 12v7l3.6-4.3"/><path stroke-linecap="square" d="M281 319l20-8-4 20z"/></g><g stroke="#FFF" stroke-width="2" stroke-linecap="square"><path d="M1380 132l-7 7-7-7"/><path d="M1362 128h22v18h-22zm6 12l-2 2m12-2l2 2"/></g><g stroke="#FFF" stroke-width="2" stroke-linecap="square"><path d="M317 458l-7 7-7-7"/><path d="M299 454h22v18h-22zm6 12l-2 2m12-2l2 2"/></g><g stroke="#FFF" stroke-width="2" stroke-linecap="square"><path d="M952 315l-7 7-7-7"/><path d="M934 311h22v18h-22zm6 12l-2 2m12-2l2 2"/></g><g stroke-width="2" stroke="#FFF"><path d="M777.9 48.3L776 52h-2l-1.9-3.7M772 56l2-4m2 0l2 4"/><path d="M771.7 48h-.7c-3.9 0-7 3.1-7 7v1h22v-1c0-3.9-3.1-7-7-7h-.7m-9.3-7.2c1 .7 2.2 1.2 3.5 1.2 2.2 0 4.1-1.3 5-3.2.7 1.5 1.9 2.6 3.5 3"/><path d="M775 49c-3.3 0-6-2.7-6-6v-3c0-3.3 2.7-6 6-6s6 2.7 6 6v3c0 3.3-2.7 6-6 6z" stroke-linecap="square"/></g><path d="M554 9.6l3 6.4h6.4l-4.7 4.9 1.9 7.5-6.6-3.8-6.6 3.8 1.9-7.5-4.7-4.9h6.4z" stroke-linecap="square" stroke-width="2" stroke="#FFF"/><g transform="translate(1388 204)" stroke="#FFF" stroke-width="2"><path d="M19 3.5c-1.9 2-3 4.6-3 7.5 0 2.9 1.1 5.6 3 7.5M3 3.5c1.9 2 3 4.6 3 7.5 0 2.9-1.1 5.6-3 7.5M11 0v22m11-11H0"/><circle stroke-linecap="square" cx="11" cy="11" r="11"/></g><g transform="translate(562 161)" stroke="#FFF" stroke-width="2" stroke-linecap="square"><circle cx="8" cy="11" r="8"/><path d="M8 8v3h3M2 2V0h12v2M2 20v2h12v-2"/></g><g stroke="#FFF" stroke-width="2" stroke-linecap="square"><path d="M1093 38h18v12h-18zm4-4v4m10-4v4"/><path d="M1089 56V34h22"/></g><g stroke="#FFF" stroke-width="2" stroke-linecap="square"><path d="M938 439h18v12h-18zm4-4v4m10-4v4"/><path d="M934 457v-22h22"/></g></g></svg>