<?xml version="1.0" encoding="UTF-8"?>
<svg xmlns="http://www.w3.org/2000/svg" xmlns:xlink="http://www.w3.org/1999/xlink" width="40pt" height="40pt" viewBox="0 0 40 40" version="1.1">
<g id="surface1">
<path style=" stroke:none;fill-rule:nonzero;fill:rgb(0%,0%,0%);fill-opacity:1;" d="M 38.128906 17.480469 L 21.113281 0.460938 C 20.816406 0.164062 20.417969 0 20 0 C 19.582031 0 19.183594 0.164062 18.886719 0.460938 L 1.871094 17.480469 C 1.417969 17.929688 1.285156 18.605469 1.527344 19.191406 C 1.773438 19.78125 2.34375 20.164062 2.980469 20.164062 L 5.769531 20.164062 L 5.769531 38.425781 C 5.769531 39.296875 6.472656 40 7.339844 40 L 32.660156 40 C 33.527344 40 34.230469 39.296875 34.230469 38.425781 L 34.230469 20.164062 L 37.019531 20.164062 C 37.65625 20.164062 38.226562 19.78125 38.472656 19.191406 C 38.714844 18.605469 38.582031 17.929688 38.128906 17.480469 Z M 23.671875 35.015625 L 16.328125 35.015625 L 16.328125 26.691406 C 16.328125 24.835938 17.832031 23.332031 19.6875 23.332031 L 20.3125 23.332031 C 22.167969 23.332031 23.671875 24.835938 23.671875 26.691406 Z M 23.671875 35.015625 "/>
</g>
</svg>
