<?xml version="1.0" encoding="UTF-8"?>
<svg xmlns="http://www.w3.org/2000/svg" xmlns:xlink="http://www.w3.org/1999/xlink" width="40pt" height="40pt" viewBox="0 0 40 40" version="1.1">
<g id="surface1">
<path style=" stroke:none;fill-rule:nonzero;fill:rgb(0%,0%,0%);fill-opacity:1;" d="M 23.78125 3.714844 C 23.78125 1.664062 22.085938 0 20 0 C 17.914062 0 16.21875 1.664062 16.21875 3.714844 C 16.21875 5.765625 17.914062 7.429688 20 7.429688 C 22.085938 7.429688 23.78125 5.765625 23.78125 3.714844 Z M 23.78125 3.714844 "/>
<path style=" stroke:none;fill-rule:nonzero;fill:rgb(0%,0%,0%);fill-opacity:1;" d="M 35.242188 14.890625 L 24.855469 6.1875 C 24.605469 6.695312 24.253906 7.144531 23.84375 7.550781 L 32.605469 14.882812 L 35.242188 14.882812 Z M 35.242188 14.890625 "/>
<path style=" stroke:none;fill-rule:nonzero;fill:rgb(0%,0%,0%);fill-opacity:1;" d="M 16.15625 7.558594 C 15.738281 7.144531 15.394531 6.703125 15.144531 6.195312 L 4.757812 14.890625 L 7.429688 14.890625 Z M 16.15625 7.558594 "/>
<path style=" stroke:none;fill-rule:nonzero;fill:rgb(0%,0%,0%);fill-opacity:1;" d="M 19.191406 23.894531 C 19.191406 22.835938 18.84375 21.976562 18.417969 21.976562 C 17.988281 21.976562 17.640625 22.835938 17.640625 23.894531 C 17.640625 24.953125 17.988281 25.8125 18.417969 25.8125 C 18.84375 25.8125 19.191406 24.953125 19.191406 23.894531 Z M 19.191406 23.894531 "/>
<path style=" stroke:none;fill-rule:nonzero;fill:rgb(0%,0%,0%);fill-opacity:1;" d="M 16.398438 30.765625 L 15.632812 30.765625 L 15.632812 32.203125 L 16.398438 32.203125 C 16.839844 32.203125 17.199219 31.886719 17.199219 31.484375 C 17.199219 31.085938 16.839844 30.765625 16.398438 30.765625 Z M 16.398438 30.765625 "/>
<path style=" stroke:none;fill-rule:nonzero;fill:rgb(0%,0%,0%);fill-opacity:1;" d="M 0 16.570312 L 0 40 L 40 40 L 40 16.570312 Z M 10.675781 35.078125 C 10.675781 35.339844 10.441406 35.558594 10.148438 35.558594 C 9.851562 35.558594 9.617188 35.347656 9.617188 35.078125 L 9.617188 33.160156 L 8.179688 33.160156 L 8.179688 35.078125 C 8.179688 35.339844 7.941406 35.558594 7.648438 35.558594 C 7.355469 35.558594 7.117188 35.347656 7.117188 35.078125 L 7.117188 30.285156 C 7.117188 30.023438 7.355469 29.804688 7.648438 29.804688 C 7.941406 29.804688 8.179688 30.015625 8.179688 30.285156 L 8.179688 32.203125 L 9.617188 32.203125 L 9.617188 30.285156 C 9.617188 30.023438 9.851562 29.804688 10.148438 29.804688 C 10.441406 29.804688 10.675781 30.015625 10.675781 30.285156 Z M 13.125 35.078125 C 13.125 35.339844 12.890625 35.558594 12.597656 35.558594 C 12.300781 35.558594 12.066406 35.347656 12.066406 35.078125 L 12.066406 30.285156 C 12.066406 30.023438 12.300781 29.804688 12.597656 29.804688 C 12.890625 29.804688 13.125 30.015625 13.125 30.285156 Z M 14.320312 26.53125 L 12.121094 23.222656 L 12.121094 26.285156 C 12.121094 26.546875 11.886719 26.765625 11.59375 26.765625 C 11.296875 26.765625 11.0625 26.554688 11.0625 26.285156 L 11.0625 21.503906 C 11.0625 21.289062 11.222656 21.09375 11.453125 21.035156 C 11.679688 20.980469 11.925781 21.070312 12.050781 21.25 L 14.246094 24.554688 L 14.246094 21.503906 C 14.246094 21.242188 14.480469 21.019531 14.777344 21.019531 C 15.070312 21.019531 15.304688 21.234375 15.304688 21.503906 L 15.304688 26.285156 C 15.304688 26.496094 15.144531 26.675781 14.914062 26.75 C 14.792969 26.785156 14.496094 26.792969 14.320312 26.53125 Z M 18.203125 34.800781 C 18.335938 35.035156 18.21875 35.332031 17.96875 35.445312 C 17.804688 35.519531 17.484375 35.574219 17.25 35.234375 L 16.082031 33.160156 L 15.625 33.160156 L 15.625 35.078125 C 15.625 35.339844 15.386719 35.558594 15.09375 35.558594 C 14.800781 35.558594 14.5625 35.347656 14.5625 35.078125 L 14.5625 30.285156 C 14.5625 30.023438 14.800781 29.804688 15.09375 29.804688 L 16.390625 29.804688 C 17.421875 29.804688 18.253906 30.554688 18.253906 31.476562 C 18.253906 32.148438 17.8125 32.726562 17.183594 32.996094 Z M 18.417969 26.765625 C 17.402344 26.765625 16.578125 25.476562 16.578125 23.894531 C 16.578125 22.308594 17.402344 21.019531 18.417969 21.019531 C 19.429688 21.019531 20.253906 22.308594 20.253906 23.894531 C 20.253906 25.476562 19.429688 26.765625 18.417969 26.765625 Z M 20.703125 35.078125 C 20.703125 35.339844 20.464844 35.558594 20.171875 35.558594 C 19.878906 35.558594 19.640625 35.347656 19.640625 35.078125 L 19.640625 30.285156 C 19.640625 30.023438 19.878906 29.804688 20.171875 29.804688 C 20.464844 29.804688 20.703125 30.015625 20.703125 30.285156 Z M 26.433594 35.078125 C 26.433594 35.289062 26.269531 35.484375 26.039062 35.542969 C 25.992188 35.550781 25.664062 35.625 25.445312 35.332031 L 23.25 32.023438 L 23.25 35.078125 C 23.25 35.339844 23.011719 35.558594 22.71875 35.558594 C 22.425781 35.558594 22.1875 35.347656 22.1875 35.078125 L 22.1875 30.285156 C 22.1875 30.074219 22.351562 29.878906 22.578125 29.820312 C 22.808594 29.761719 23.054688 29.851562 23.175781 30.03125 L 25.371094 33.339844 L 25.371094 30.285156 C 25.371094 30.023438 25.609375 29.804688 25.902344 29.804688 C 26.195312 29.804688 26.433594 30.015625 26.433594 30.285156 Z M 27.625 21.617188 L 26.203125 26.398438 C 26.140625 26.613281 25.933594 26.757812 25.691406 26.757812 C 25.445312 26.757812 25.242188 26.613281 25.175781 26.398438 L 24.261719 23.347656 L 23.355469 26.398438 C 23.289062 26.613281 23.085938 26.757812 22.839844 26.757812 C 22.597656 26.757812 22.390625 26.613281 22.328125 26.398438 L 20.90625 21.617188 C 20.832031 21.363281 20.996094 21.101562 21.28125 21.027344 C 21.566406 20.964844 21.851562 21.109375 21.933594 21.371094 L 22.839844 24.425781 L 23.648438 21.46875 C 23.722656 21.199219 23.96875 21.011719 24.246094 21.011719 C 24.523438 21.011719 24.765625 21.199219 24.839844 21.460938 L 25.679688 24.425781 L 26.585938 21.371094 C 26.660156 21.117188 26.957031 20.964844 27.242188 21.027344 C 27.527344 21.101562 27.699219 21.363281 27.625 21.617188 Z M 30.308594 35.558594 C 29.085938 35.558594 27.730469 34.441406 27.730469 32.6875 C 27.730469 31.722656 28.433594 29.8125 30.308594 29.8125 C 31.070312 29.8125 31.78125 30.171875 32.269531 30.808594 C 32.441406 31.027344 32.375 31.324219 32.140625 31.476562 C 31.902344 31.632812 31.566406 31.574219 31.394531 31.355469 C 31.101562 30.980469 30.71875 30.765625 30.308594 30.765625 C 29.265625 30.765625 28.792969 31.96875 28.792969 32.6875 C 28.792969 33.617188 29.378906 34.605469 30.308594 34.605469 C 31.296875 34.605469 31.78125 33.519531 31.78125 33.167969 L 30.308594 33.167969 C 30.015625 33.167969 29.78125 32.957031 29.78125 32.6875 C 29.78125 32.425781 30.015625 32.203125 30.308594 32.203125 L 32.359375 32.203125 C 32.652344 32.203125 32.890625 32.417969 32.890625 32.6875 C 32.890625 33.796875 32.128906 35.558594 30.308594 35.558594 Z M 30.308594 35.558594 "/>
</g>
</svg>
