<?xml version="1.0" encoding="UTF-8"?>
<svg xmlns="http://www.w3.org/2000/svg" xmlns:xlink="http://www.w3.org/1999/xlink" width="40pt" height="40pt" viewBox="0 0 40 40" version="1.1">
<g id="surface1">
<path style=" stroke:none;fill-rule:nonzero;fill:rgb(0%,0%,0%);fill-opacity:1;" d="M 7.632812 23.28125 L 11.015625 23.28125 L 11.015625 26.660156 L 7.632812 26.660156 Z M 7.632812 23.28125 "/>
<path style=" stroke:none;fill-rule:nonzero;fill:rgb(0%,0%,0%);fill-opacity:1;" d="M 9.324219 13.464844 C 10.257812 13.464844 11.015625 14.222656 11.015625 15.152344 C 11.015625 16.089844 10.257812 16.847656 9.324219 16.847656 C 8.390625 16.847656 7.632812 16.089844 7.632812 15.152344 C 7.632812 14.222656 8.390625 13.464844 9.324219 13.464844 Z M 9.324219 13.464844 "/>
<path style=" stroke:none;fill-rule:nonzero;fill:rgb(0%,0%,0%);fill-opacity:1;" d="M 38.679688 4.421875 L 1.449219 4.421875 C 0.648438 4.421875 0 5.070312 0 5.871094 L 0 34.257812 C 0 35.054688 0.648438 35.703125 1.449219 35.703125 L 38.679688 35.703125 C 39.476562 35.703125 40.125 35.054688 40.125 34.257812 L 40.125 5.871094 C 40.125 5.070312 39.476562 4.421875 38.679688 4.421875 Z M 13.910156 28.109375 C 13.910156 28.90625 13.261719 29.554688 12.460938 29.554688 L 6.1875 29.554688 C 5.386719 29.554688 4.738281 28.90625 4.738281 28.109375 L 4.738281 21.832031 C 4.738281 21.035156 5.386719 20.386719 6.1875 20.386719 L 12.460938 20.386719 C 13.265625 20.386719 13.910156 21.035156 13.910156 21.832031 Z M 9.324219 19.742188 C 6.796875 19.742188 4.738281 17.6875 4.738281 15.152344 C 4.738281 12.628906 6.796875 10.570312 9.324219 10.570312 C 11.855469 10.570312 13.910156 12.628906 13.910156 15.152344 C 13.910156 17.6875 11.855469 19.742188 9.324219 19.742188 Z M 33.9375 28.667969 L 20.148438 28.667969 C 19.351562 28.667969 18.699219 28.019531 18.699219 27.222656 C 18.699219 26.421875 19.351562 25.773438 20.148438 25.773438 L 33.9375 25.773438 C 34.738281 25.773438 35.386719 26.421875 35.386719 27.222656 C 35.386719 28.019531 34.738281 28.667969 33.9375 28.667969 Z M 33.9375 23.84375 L 20.148438 23.84375 C 19.351562 23.84375 18.699219 23.195312 18.699219 22.394531 C 18.699219 21.597656 19.351562 20.949219 20.148438 20.949219 L 33.9375 20.949219 C 34.738281 20.949219 35.386719 21.597656 35.386719 22.394531 C 35.386719 23.195312 34.738281 23.84375 33.9375 23.84375 Z M 33.9375 19.019531 L 20.148438 19.019531 C 19.351562 19.019531 18.699219 18.371094 18.699219 17.570312 C 18.699219 16.769531 19.351562 16.121094 20.148438 16.121094 L 33.9375 16.121094 C 34.738281 16.121094 35.386719 16.773438 35.386719 17.570312 C 35.386719 18.371094 34.738281 19.019531 33.9375 19.019531 Z M 33.9375 14.191406 L 20.148438 14.191406 C 19.351562 14.191406 18.699219 13.542969 18.699219 12.746094 C 18.699219 11.941406 19.351562 11.296875 20.148438 11.296875 L 33.9375 11.296875 C 34.738281 11.296875 35.386719 11.941406 35.386719 12.746094 C 35.386719 13.542969 34.738281 14.191406 33.9375 14.191406 Z M 33.9375 14.191406 "/>
</g>
</svg>
